<svg width="250" height="250" viewBox="0 0 250 250" fill="none" xmlns="http://www.w3.org/2000/svg">
<circle cx="125" cy="125" r="121" fill="url(#paint0_radial_13_1151)" stroke="black" stroke-width="8"/>
<circle cx="125.5" cy="124.5" r="74.5" stroke="black" stroke-width="2"/>
<circle cx="125" cy="125" r="20" fill="black"/>
<path fill-rule="evenodd" clip-rule="evenodd" d="M151.691 46.7373C152.665 45.1482 153.634 43.5679 154.989 42.2598C157.293 40.0351 158.738 38.8589 161.575 37.374C163.985 36.1129 165.474 35.6269 168.118 34.9878C171.178 34.2479 172.986 34.0954 176.134 34.1276C176.492 34.1312 176.835 34.1329 177.166 34.1345C179.925 34.148 181.848 34.1573 184.615 35.2758C185.83 35.7666 187.589 36.8279 187.589 36.8279C187.589 36.8279 184.232 36.8591 182.081 37.2318C180.119 37.5718 178.912 37.9253 177.055 38.6443C175.086 39.407 174.016 40.0909 172.504 41.5653C171.301 42.7379 170.626 43.4868 169.943 45.0212C169.825 45.2852 169.703 45.6287 169.605 45.9195C174.604 48.6254 178 53.9162 178 60C178 68.8365 170.837 76 162 76C153.163 76 146 68.8365 146 60C146 56.2153 147.314 52.7376 149.511 49.9981L149.5 50C150.323 48.9684 151.008 47.8507 151.691 46.7373Z" fill="black"/>
<defs>
<radialGradient id="paint0_radial_13_1151" cx="0" cy="0" r="1" gradientUnits="userSpaceOnUse" gradientTransform="translate(125 125) rotate(90) scale(125)">
<stop stop-color="#A30000"/>
<stop offset="0.611" stop-color="#C00000"/>
<stop offset="0.996" stop-color="#A80000"/>
</radialGradient>
</defs>
</svg>
