<svg width="250" height="250" viewBox="0 0 250 250" fill="none" xmlns="http://www.w3.org/2000/svg">
<circle cx="125" cy="125" r="121" fill="url(#paint0_radial_13_1175)" stroke="black" stroke-width="8"/>
<path d="M30 165.5C24.3266 165.327 15.5 164.5 15.5 164.5C15.5 164.5 17.9029 169.017 20 171.5C22.501 174.461 24.3216 175.782 27.5 178C30.4395 180.051 32.2125 181.071 35.5 182.5C38.3316 183.73 39.9894 184.316 43 185C46.2592 185.741 48.1655 185.772 51.5 186C56.1753 186.32 58.8137 186.5 63.5 186.5C67.21 186.5 69.3215 186.482 73 186C77.6546 185.39 79.949 184.652 84.5 183.5C89.3261 182.279 92.2772 181.574 97 180C102.385 178.205 104.973 176.135 110 173.5C114.209 171.293 116.589 169.964 120.636 167.703L121 167.5C125.123 165.197 127.429 163.894 131.5 161.5C134.445 159.769 135.875 158.38 139 157C144.115 154.741 147.422 154.391 153 154C157.484 153.686 160.05 153.865 164.5 154.5C168.673 155.095 171.032 155.579 175 157C178.454 158.237 180.383 159.065 183.5 161C186.92 163.123 188.514 164.801 191.5 167.5C194.368 170.092 196.036 171.521 198.5 174.5C201.192 177.755 202.272 179.911 204.5 183.5C206.991 187.513 208.45 189.745 210.5 194C211.791 196.679 213.5 201 213.5 201C213.5 201 215.629 198.104 216.5 196C217.716 193.063 217.699 191.164 218 188C218.314 184.695 218.152 182.816 218 179.5C217.821 175.579 217.879 173.325 217 169.5C216.115 165.647 215.023 163.648 213.5 160C211.75 155.809 210.798 153.417 208.5 149.5C206.582 146.23 205.119 144.644 203 141.5C201.819 139.749 201.277 138.682 200 137C198.078 134.468 196.757 133.238 194.5 131C191.552 128.077 189.662 126.69 186.5 124C184.177 122.024 182.909 120.871 180.5 119C177.291 116.507 175.411 115.207 172 113C169.132 111.144 167.413 110.283 164.5 108.5C161.358 106.577 159.646 105.417 156.5 103.5C154.556 102.315 153.447 101.681 151.5 100.5C148.952 98.9541 147.367 98.3117 145 96.5C141.93 94.1501 140.544 92.4111 138 89.5L137.904 89.3906C136.318 87.5753 135.393 86.5173 134 84.5L133.906 84.3638C132.669 82.5737 131.937 81.514 131 79.5C129.958 77.2607 129.355 75.8172 128.5 73.5C127.772 71.527 127.346 70.5744 127 68.5C126.5 65.5 126.451 63.935 126.5 61C126.539 58.649 126.742 57.337 127 55C127.304 52.2553 127.379 50.6907 128 48C128.694 44.9917 129.472 43.4111 130.5 40.5C131.611 37.3538 132.17 35.5601 133.5 32.5C134.892 29.2965 135.727 27.5093 137.5 24.5C138.93 22.0738 139.938 20.8431 141.5 18.5C142.672 16.7426 143.297 15.736 144.5 14C145.457 12.6193 147 10.5 147 10.5C147 10.5 146.086 10.4834 145.5 10.5C142.933 10.5726 141.516 10.9859 139 11.5C135.426 12.2301 133.366 12.5944 130 14C127.34 15.1109 125.945 15.9715 123.5 17.5C119.957 19.7154 118.065 21.1598 115 24C112.466 26.3479 111.027 27.7026 109 30.5C107.153 33.0496 106.47 34.7158 105 37.5C103.083 41.1301 101.964 43.1649 100.5 47C99.3324 50.0578 98.4831 51.8779 97.5 55C96.146 59.2998 95.3841 61.5795 94.5 66C93.6159 70.4204 93.4867 73.0184 93 77.5C92.511 82.0026 92.0716 85.0071 91.5 89.5C91.1026 92.6233 91.3082 93.8666 91 97C90.7508 99.5337 90.6133 100.957 90.5 103.5C90.3436 107.011 90.6938 108.991 90.5 112.5C90.305 116.031 90.0553 118.007 89.5 121.5C89.031 124.45 88.8042 126.123 88 129C86.4467 134.556 84.9603 137.548 82 142.5L81.8451 142.759C79.5749 146.558 78.2119 148.839 75 152C72.2168 154.739 70.3526 155.997 67 158C63.8505 159.881 61.9397 160.724 58.5 162C55.0798 163.268 53.0806 163.803 49.5 164.5C46.4095 165.102 44.6401 165.27 41.5 165.5C37.021 165.828 34.489 165.637 30 165.5Z" fill="black"/>
<circle cx="124.5" cy="124.5" r="17.5" fill="#BE0101"/>
<defs>
<radialGradient id="paint0_radial_13_1175" cx="0" cy="0" r="1" gradientUnits="userSpaceOnUse" gradientTransform="translate(125 125) rotate(90) scale(125)">
<stop stop-color="#A30000"/>
<stop offset="0.611" stop-color="#C00000"/>
<stop offset="0.996" stop-color="#A80000"/>
</radialGradient>
</defs>
</svg>
