<svg width="250" height="250" viewBox="0 0 250 250" fill="none" xmlns="http://www.w3.org/2000/svg">
<circle cx="125" cy="125" r="121" fill="url(#paint0_radial_13_1162)" stroke="black" stroke-width="8"/>
<circle cx="125.5" cy="124.5" r="74.5" stroke="black" stroke-width="2"/>
<circle cx="125" cy="125" r="20" fill="black"/>
<path fill-rule="evenodd" clip-rule="evenodd" d="M113.691 42.7373C114.665 41.1482 115.634 39.5679 116.989 38.2598C119.293 36.0351 120.738 34.8589 123.575 33.374C125.985 32.1129 127.474 31.6269 130.118 30.9878C133.178 30.2479 134.986 30.0954 138.134 30.1276C138.492 30.1312 138.835 30.1329 139.166 30.1345C141.925 30.148 143.848 30.1573 146.615 31.2758C147.83 31.7666 149.589 32.8279 149.589 32.8279C149.589 32.8279 146.232 32.8591 144.081 33.2318C142.119 33.5718 140.912 33.9253 139.055 34.6443C137.086 35.407 136.016 36.0909 134.504 37.5653C133.301 38.7379 132.626 39.4868 131.943 41.0212C131.825 41.2852 131.703 41.6287 131.605 41.9195C136.604 44.6254 140 49.9162 140 56C140 64.8365 132.837 72 124 72C115.163 72 108 64.8365 108 56C108 52.2153 109.314 48.7376 111.511 45.9981L111.5 46C112.323 44.9684 113.008 43.8507 113.691 42.7373Z" fill="black"/>
<path fill-rule="evenodd" clip-rule="evenodd" d="M65.4724 177.212C63.8827 178.186 62.3019 179.154 60.501 179.705C57.4384 180.641 55.6168 181.033 52.4145 181.068C49.695 181.097 48.1472 180.854 45.5016 180.224C42.439 179.493 40.7592 178.809 37.9686 177.351C37.6512 177.185 37.3463 177.028 37.052 176.876C34.5996 175.611 32.8905 174.73 30.933 172.477C30.0738 171.489 28.9884 169.744 28.9884 169.744C28.9884 169.744 31.9935 171.241 34.0793 171.885C35.9819 172.473 37.2173 172.706 39.1983 172.908C41.2994 173.123 42.5631 172.999 44.5799 172.372C46.1839 171.873 47.1249 171.512 48.4305 170.455C48.6551 170.273 48.9205 170.023 49.1392 169.808C45.9133 165.127 45.2898 158.872 48.0518 153.451C52.0635 145.578 61.6983 142.447 69.5717 146.459C77.4451 150.471 80.5757 160.105 76.564 167.979C74.8458 171.351 72.0961 173.853 68.8952 175.297L68.9056 175.3C67.7043 175.846 66.5862 176.53 65.4724 177.212Z" fill="black"/>
<path fill-rule="evenodd" clip-rule="evenodd" d="M200.137 156.12C201.595 157.281 203.046 158.435 204.179 159.939C206.106 162.497 207.098 164.074 208.226 167.072C209.184 169.617 209.485 171.154 209.797 173.856C210.158 176.984 210.089 178.797 209.674 181.918C209.626 182.272 209.583 182.613 209.541 182.941C209.191 185.678 208.948 187.586 207.501 190.196C206.865 191.341 205.598 192.958 205.598 192.958C205.598 192.958 205.976 189.622 205.868 187.442C205.77 185.453 205.566 184.212 205.078 182.282C204.561 180.234 204.013 179.088 202.734 177.408C201.717 176.071 201.056 175.31 199.616 174.445C199.368 174.296 199.042 174.132 198.765 174C195.47 178.633 189.805 181.358 183.767 180.617C174.996 179.54 168.759 171.557 169.836 162.786C170.913 154.015 178.896 147.778 187.667 148.855C191.423 149.316 194.715 151.044 197.166 153.559L197.165 153.548C198.089 154.49 199.115 155.306 200.137 156.12Z" fill="black"/>
<defs>
<radialGradient id="paint0_radial_13_1162" cx="0" cy="0" r="1" gradientUnits="userSpaceOnUse" gradientTransform="translate(125 125) rotate(90) scale(125)">
<stop stop-color="#A30000"/>
<stop offset="0.611" stop-color="#C00000"/>
<stop offset="0.996" stop-color="#A80000"/>
</radialGradient>
</defs>
</svg>
