<svg width="171" height="24" viewBox="0 0 171 24" fill="none" xmlns="http://www.w3.org/2000/svg">
<path d="M8.60085 19.2628L1.97443 12.6364L8.60085 6.00994L9.87926 7.27415L5.44034 11.7131H24.3182V13.5597H5.44034L9.87926 17.9915L8.60085 19.2628Z" fill="white"/>
<path d="M41.598 19V4.45455H46.9247C47.9569 4.45455 48.8116 4.625 49.4886 4.96591C50.1657 5.30208 50.6723 5.759 51.0085 6.33665C51.3447 6.90956 51.5128 7.55587 51.5128 8.27557C51.5128 8.88163 51.4015 9.39299 51.179 9.80966C50.9564 10.2216 50.6581 10.553 50.2841 10.804C49.9148 11.0502 49.5076 11.2301 49.0625 11.3438V11.4858C49.5455 11.5095 50.0166 11.6657 50.4759 11.9545C50.9399 12.2386 51.3234 12.6435 51.6264 13.169C51.9295 13.6946 52.081 14.3338 52.081 15.0866C52.081 15.83 51.9058 16.4976 51.5554 17.0895C51.2098 17.6766 50.6747 18.143 49.9503 18.4886C49.2259 18.8295 48.3002 19 47.1733 19H41.598ZM43.7926 17.1179H46.9602C48.0114 17.1179 48.7642 16.9143 49.2188 16.5071C49.6733 16.0999 49.9006 15.5909 49.9006 14.9801C49.9006 14.5208 49.7846 14.0994 49.5526 13.7159C49.3205 13.3324 48.9891 13.027 48.5582 12.7997C48.1321 12.5724 47.6255 12.4588 47.0384 12.4588H43.7926V17.1179ZM43.7926 10.7472H46.733C47.2254 10.7472 47.6681 10.6525 48.0611 10.4631C48.4588 10.2737 48.7737 10.0085 49.0057 9.66761C49.2424 9.32197 49.3608 8.91477 49.3608 8.44602C49.3608 7.8447 49.1501 7.34044 48.7287 6.93324C48.3073 6.52604 47.661 6.32244 46.7898 6.32244H43.7926V10.7472ZM57.6882 19.2415C56.9969 19.2415 56.3719 19.1136 55.8132 18.858C55.2545 18.5975 54.8118 18.2211 54.4851 17.7287C54.1631 17.2363 54.0021 16.6326 54.0021 15.9176C54.0021 15.3021 54.1205 14.7955 54.3572 14.3977C54.594 14 54.9136 13.6851 55.3161 13.4531C55.7185 13.2211 56.1683 13.0459 56.6655 12.9276C57.1626 12.8092 57.6693 12.7192 58.1854 12.6577C58.8388 12.5819 59.3691 12.5204 59.7763 12.473C60.1835 12.4209 60.4794 12.3381 60.6641 12.2244C60.8487 12.1108 60.9411 11.9261 60.9411 11.6705V11.6207C60.9411 11.0005 60.7659 10.5199 60.4155 10.179C60.0698 9.83807 59.5537 9.66761 58.8672 9.66761C58.1522 9.66761 57.5888 9.82623 57.1768 10.1435C56.7696 10.456 56.4879 10.804 56.3317 11.1875L54.3359 10.733C54.5727 10.0701 54.9183 9.53504 55.3729 9.12784C55.8321 8.71591 56.3601 8.41761 56.9567 8.23295C57.5533 8.04356 58.1806 7.94886 58.8388 7.94886C59.2744 7.94886 59.736 8.00095 60.2237 8.10511C60.7161 8.20455 61.1754 8.3892 61.6016 8.65909C62.0324 8.92898 62.3852 9.31487 62.6598 9.81676C62.9344 10.3139 63.0717 10.9602 63.0717 11.7557V19H60.9979V17.5085H60.9126C60.7753 17.7831 60.5694 18.053 60.2947 18.3182C60.0201 18.5833 59.6674 18.8035 59.2365 18.9787C58.8056 19.1539 58.2895 19.2415 57.6882 19.2415ZM58.1499 17.5369C58.737 17.5369 59.2389 17.4209 59.6555 17.1889C60.0769 16.9569 60.3965 16.6539 60.6143 16.2798C60.8369 15.901 60.9482 15.4962 60.9482 15.0653V13.6591C60.8724 13.7348 60.7256 13.8059 60.5078 13.8722C60.2947 13.9337 60.0509 13.9882 59.7763 14.0355C59.5017 14.0781 59.2341 14.1184 58.9737 14.1562C58.7133 14.1894 58.4955 14.2178 58.3203 14.2415C57.9084 14.2936 57.532 14.3812 57.1911 14.5043C56.8549 14.6274 56.585 14.8049 56.3814 15.0369C56.1825 15.2642 56.0831 15.5672 56.0831 15.946C56.0831 16.4716 56.2772 16.8693 56.6655 17.1392C57.0537 17.4044 57.5485 17.5369 58.1499 17.5369ZM70.4954 19.2202C69.4395 19.2202 68.5304 18.9811 67.7681 18.5028C67.0105 18.0199 66.4281 17.3546 66.021 16.5071C65.6138 15.6596 65.4102 14.6889 65.4102 13.5952C65.4102 12.4872 65.6185 11.5095 66.0352 10.6619C66.4518 9.80966 67.0389 9.14441 67.7965 8.66619C68.5541 8.18797 69.4466 7.94886 70.4741 7.94886C71.3027 7.94886 72.0413 8.10275 72.69 8.41051C73.3387 8.71354 73.8619 9.13968 74.2596 9.68892C74.6621 10.2382 74.9012 10.8797 74.9769 11.6136H72.9102C72.7965 11.1023 72.5361 10.6619 72.1289 10.2926C71.7264 9.9233 71.1867 9.73864 70.5096 9.73864C69.9177 9.73864 69.3993 9.89489 68.9542 10.2074C68.5138 10.5152 68.1706 10.9555 67.9244 11.5284C67.6781 12.0966 67.555 12.7689 67.555 13.5455C67.555 14.3409 67.6758 15.0275 67.9173 15.6051C68.1587 16.1828 68.4996 16.6302 68.94 16.9474C69.3851 17.2647 69.9083 17.4233 70.5096 17.4233C70.9121 17.4233 71.2766 17.3499 71.6033 17.2031C71.9348 17.0516 72.2118 16.8362 72.4343 16.5568C72.6616 16.2775 72.8202 15.9413 72.9102 15.5483H74.9769C74.9012 16.2538 74.6715 16.8835 74.288 17.4375C73.9045 17.9915 73.3907 18.4271 72.7468 18.7443C72.1076 19.0616 71.3571 19.2202 70.4954 19.2202ZM79.201 15.2997L79.1868 12.7074H79.5561L83.9027 8.09091H86.4453L81.4879 13.3466H81.1541L79.201 15.2997ZM77.2479 19V4.45455H79.3714V19H77.2479ZM84.1371 19L80.2308 13.8153L81.6939 12.331L86.7436 19H84.1371ZM98.766 8.09091V9.79545H92.8072V8.09091H98.766ZM94.4052 5.47727H96.5288V15.7969C96.5288 16.2088 96.5903 16.5189 96.7134 16.7273C96.8365 16.9309 96.9951 17.0705 97.1893 17.1463C97.3881 17.2173 97.6036 17.2528 97.8356 17.2528C98.006 17.2528 98.1552 17.241 98.283 17.2173C98.4109 17.1937 98.5103 17.1747 98.5813 17.1605L98.9648 18.9148C98.8417 18.9621 98.6665 19.0095 98.4393 19.0568C98.212 19.1089 97.9279 19.1373 97.587 19.142C97.0283 19.1515 96.5075 19.0521 96.0245 18.8438C95.5415 18.6354 95.1509 18.3134 94.8526 17.8778C94.5543 17.4422 94.4052 16.8954 94.4052 16.2372V5.47727ZM105.593 19.2202C104.57 19.2202 103.678 18.9858 102.915 18.517C102.153 18.0483 101.561 17.3925 101.14 16.5497C100.719 15.7069 100.508 14.7221 100.508 13.5952C100.508 12.4635 100.719 11.474 101.14 10.6264C101.561 9.77888 102.153 9.12074 102.915 8.65199C103.678 8.18324 104.57 7.94886 105.593 7.94886C106.616 7.94886 107.508 8.18324 108.271 8.65199C109.033 9.12074 109.625 9.77888 110.046 10.6264C110.468 11.474 110.678 12.4635 110.678 13.5952C110.678 14.7221 110.468 15.7069 110.046 16.5497C109.625 17.3925 109.033 18.0483 108.271 18.517C107.508 18.9858 106.616 19.2202 105.593 19.2202ZM105.6 17.4375C106.263 17.4375 106.812 17.2623 107.248 16.9119C107.683 16.5616 108.005 16.0952 108.214 15.5128C108.427 14.9304 108.533 14.2888 108.533 13.5881C108.533 12.892 108.427 12.2528 108.214 11.6705C108.005 11.0833 107.683 10.6122 107.248 10.2571C106.812 9.90199 106.263 9.72443 105.6 9.72443C104.933 9.72443 104.379 9.90199 103.938 10.2571C103.503 10.6122 103.178 11.0833 102.965 11.6705C102.757 12.2528 102.653 12.892 102.653 13.5881C102.653 14.2888 102.757 14.9304 102.965 15.5128C103.178 16.0952 103.503 16.5616 103.938 16.9119C104.379 17.2623 104.933 17.4375 105.6 17.4375ZM122.915 23.3182C122.049 23.3182 121.303 23.2045 120.678 22.9773C120.058 22.75 119.551 22.4493 119.158 22.0753C118.765 21.7012 118.472 21.2917 118.278 20.8466L120.103 20.0938C120.231 20.3021 120.401 20.5223 120.614 20.7543C120.832 20.991 121.126 21.1922 121.495 21.358C121.869 21.5237 122.35 21.6065 122.937 21.6065C123.742 21.6065 124.407 21.41 124.933 21.017C125.458 20.6288 125.721 20.0085 125.721 19.1562V17.0114H125.586C125.458 17.2434 125.273 17.5014 125.032 17.7855C124.795 18.0696 124.469 18.3158 124.052 18.5241C123.635 18.7325 123.093 18.8366 122.425 18.8366C121.564 18.8366 120.787 18.6354 120.096 18.233C119.409 17.8258 118.865 17.2268 118.462 16.4361C118.065 15.6406 117.866 14.6629 117.866 13.5028C117.866 12.3428 118.062 11.3485 118.455 10.5199C118.853 9.69129 119.397 9.05682 120.089 8.61648C120.78 8.1714 121.564 7.94886 122.44 7.94886C123.117 7.94886 123.664 8.0625 124.08 8.28977C124.497 8.51231 124.821 8.77273 125.053 9.07102C125.29 9.36932 125.472 9.6321 125.6 9.85938H125.756V8.09091H127.837V19.2415C127.837 20.179 127.62 20.9484 127.184 21.5497C126.748 22.151 126.159 22.5961 125.415 22.8849C124.677 23.1738 123.844 23.3182 122.915 23.3182ZM122.894 17.0753C123.505 17.0753 124.021 16.9332 124.442 16.6491C124.869 16.3603 125.191 15.9484 125.408 15.4134C125.631 14.8736 125.742 14.2273 125.742 13.4744C125.742 12.7405 125.633 12.0942 125.415 11.5355C125.198 10.9768 124.878 10.5412 124.457 10.2287C124.035 9.91146 123.514 9.75284 122.894 9.75284C122.255 9.75284 121.722 9.91856 121.296 10.25C120.87 10.5767 120.548 11.0218 120.33 11.5852C120.117 12.1487 120.011 12.7784 120.011 13.4744C120.011 14.1894 120.12 14.8168 120.337 15.3565C120.555 15.8963 120.877 16.3177 121.303 16.6207C121.734 16.9238 122.264 17.0753 122.894 17.0753ZM133.86 19.2415C133.169 19.2415 132.544 19.1136 131.985 18.858C131.426 18.5975 130.984 18.2211 130.657 17.7287C130.335 17.2363 130.174 16.6326 130.174 15.9176C130.174 15.3021 130.292 14.7955 130.529 14.3977C130.766 14 131.085 13.6851 131.488 13.4531C131.89 13.2211 132.34 13.0459 132.837 12.9276C133.335 12.8092 133.841 12.7192 134.357 12.6577C135.011 12.5819 135.541 12.5204 135.948 12.473C136.355 12.4209 136.651 12.3381 136.836 12.2244C137.021 12.1108 137.113 11.9261 137.113 11.6705V11.6207C137.113 11.0005 136.938 10.5199 136.587 10.179C136.242 9.83807 135.726 9.66761 135.039 9.66761C134.324 9.66761 133.761 9.82623 133.349 10.1435C132.942 10.456 132.66 10.804 132.504 11.1875L130.508 10.733C130.745 10.0701 131.09 9.53504 131.545 9.12784C132.004 8.71591 132.532 8.41761 133.129 8.23295C133.725 8.04356 134.353 7.94886 135.011 7.94886C135.446 7.94886 135.908 8.00095 136.396 8.10511C136.888 8.20455 137.347 8.3892 137.773 8.65909C138.204 8.92898 138.557 9.31487 138.832 9.81676C139.106 10.3139 139.244 10.9602 139.244 11.7557V19H137.17V17.5085H137.085C136.947 17.7831 136.741 18.053 136.467 18.3182C136.192 18.5833 135.839 18.8035 135.408 18.9787C134.978 19.1539 134.461 19.2415 133.86 19.2415ZM134.322 17.5369C134.909 17.5369 135.411 17.4209 135.827 17.1889C136.249 16.9569 136.568 16.6539 136.786 16.2798C137.009 15.901 137.12 15.4962 137.12 15.0653V13.6591C137.044 13.7348 136.897 13.8059 136.68 13.8722C136.467 13.9337 136.223 13.9882 135.948 14.0355C135.674 14.0781 135.406 14.1184 135.146 14.1562C134.885 14.1894 134.667 14.2178 134.492 14.2415C134.08 14.2936 133.704 14.3812 133.363 14.5043C133.027 14.6274 132.757 14.8049 132.553 15.0369C132.354 15.2642 132.255 15.5672 132.255 15.946C132.255 16.4716 132.449 16.8693 132.837 17.1392C133.226 17.4044 133.72 17.5369 134.322 17.5369ZM142.072 19V8.09091H144.11V9.86648H144.245C144.473 9.26515 144.844 8.7964 145.36 8.46023C145.877 8.11932 146.494 7.94886 147.214 7.94886C147.943 7.94886 148.554 8.11932 149.047 8.46023C149.544 8.80114 149.911 9.26989 150.147 9.86648H150.261C150.521 9.28409 150.936 8.82008 151.504 8.47443C152.072 8.12405 152.749 7.94886 153.535 7.94886C154.525 7.94886 155.332 8.259 155.957 8.87926C156.587 9.49953 156.902 10.4347 156.902 11.6847V19H154.778V11.8835C154.778 11.1449 154.577 10.6098 154.174 10.2784C153.772 9.94697 153.291 9.78125 152.733 9.78125C152.041 9.78125 151.504 9.99432 151.12 10.4205C150.737 10.8419 150.545 11.384 150.545 12.0469V19H148.429V11.7486C148.429 11.1567 148.244 10.6809 147.875 10.321C147.505 9.96117 147.025 9.78125 146.433 9.78125C146.03 9.78125 145.659 9.88778 145.318 10.1009C144.982 10.3092 144.709 10.6004 144.501 10.9744C144.297 11.3485 144.196 11.7817 144.196 12.2741V19H142.072ZM164.45 19.2202C163.375 19.2202 162.449 18.9905 161.673 18.5312C160.901 18.0672 160.304 17.4162 159.883 16.5781C159.466 15.7353 159.258 14.7481 159.258 13.6165C159.258 12.4991 159.466 11.5142 159.883 10.6619C160.304 9.80966 160.891 9.14441 161.644 8.66619C162.402 8.18797 163.287 7.94886 164.3 7.94886C164.916 7.94886 165.513 8.05066 166.09 8.25426C166.668 8.45786 167.186 8.77746 167.646 9.21307C168.105 9.64867 168.467 10.2145 168.732 10.9105C168.997 11.6018 169.13 12.4422 169.13 13.4318V14.1847H160.458V12.5938H167.049C167.049 12.035 166.935 11.5402 166.708 11.1094C166.481 10.6738 166.161 10.3305 165.749 10.0795C165.342 9.8286 164.864 9.70312 164.315 9.70312C163.718 9.70312 163.197 9.84991 162.752 10.1435C162.312 10.4323 161.971 10.8111 161.729 11.2798C161.493 11.7438 161.374 12.2481 161.374 12.7926V14.0355C161.374 14.7647 161.502 15.3849 161.758 15.8963C162.018 16.4077 162.38 16.7983 162.844 17.0682C163.308 17.3333 163.851 17.4659 164.471 17.4659C164.873 17.4659 165.24 17.4091 165.572 17.2955C165.903 17.1771 166.19 17.0019 166.431 16.7699C166.673 16.5379 166.857 16.2514 166.985 15.9105L168.995 16.2727C168.834 16.8646 168.545 17.383 168.129 17.8281C167.717 18.2685 167.198 18.6117 166.573 18.858C165.953 19.0994 165.245 19.2202 164.45 19.2202Z" fill="white"/>
</svg>
