<svg width="250" height="250" viewBox="0 0 250 250" fill="none" xmlns="http://www.w3.org/2000/svg">
<g filter="url(#filter0_i_13_1225)">
<circle cx="125" cy="125" r="125" fill="url(#paint0_radial_13_1225)"/>
</g>
<circle cx="125" cy="125" r="121" stroke="black" stroke-width="8"/>
<circle cx="125" cy="125" r="100" stroke="black" stroke-width="2"/>
<circle cx="125" cy="125" r="71" stroke="black" stroke-width="2"/>
<circle cx="125" cy="125" r="43" stroke="black" stroke-width="2"/>
<circle cx="125" cy="125" r="14" fill="black"/>
<path fill-rule="evenodd" clip-rule="evenodd" d="M118.215 76.0417C118.541 75.0699 118.864 74.1036 119.428 73.2353C120.387 71.7586 121.016 70.9498 122.352 69.8034C123.487 68.8299 124.225 68.3854 125.562 67.716C127.11 66.9412 128.059 66.636 129.75 66.2638C129.942 66.2215 130.126 66.18 130.303 66.1399C131.783 65.8058 132.814 65.573 134.435 65.83C135.146 65.9428 136.22 66.2937 136.22 66.2937C136.22 66.2937 134.425 66.7256 133.319 67.1913C132.31 67.6161 131.708 67.9546 130.802 68.5695C129.841 69.2216 129.352 69.7203 128.725 70.6971C128.225 71.474 127.957 71.9586 127.78 72.8651C127.75 73.0211 127.727 73.2204 127.711 73.3883C130.723 74.2196 133.196 76.6338 133.949 79.8928C135.042 84.6264 132.09 89.3498 127.357 90.4426C122.623 91.5355 117.9 88.584 116.807 83.8503C116.339 81.8229 116.612 79.7974 117.45 78.0582L117.445 78.0605C117.758 77.4061 117.987 76.7226 118.215 76.0417Z" fill="black"/>
<path fill-rule="evenodd" clip-rule="evenodd" d="M133.29 200.598C132.981 201.575 132.675 202.547 132.126 203.425C131.193 204.918 130.579 205.738 129.262 206.908C128.145 207.901 127.415 208.358 126.09 209.051C124.555 209.852 123.611 210.174 121.928 210.576C121.736 210.621 121.553 210.666 121.376 210.709C119.902 211.069 118.875 211.32 117.251 211.091C116.538 210.991 115.458 210.659 115.458 210.659C115.458 210.659 117.245 210.196 118.343 209.711C119.344 209.268 119.941 208.919 120.835 208.289C121.785 207.62 122.264 207.113 122.875 206.125C123.361 205.34 123.621 204.851 123.781 203.941C123.809 203.785 123.829 203.585 123.842 203.417C120.815 202.638 118.3 200.268 117.491 197.022C116.316 192.308 119.185 187.534 123.898 186.359C128.612 185.184 133.386 188.052 134.562 192.766C135.065 194.785 134.827 196.815 134.019 198.569L134.025 198.566C133.723 199.226 133.506 199.913 133.29 200.598Z" fill="black"/>
<path fill-rule="evenodd" clip-rule="evenodd" d="M170.399 142.947C171.065 143.727 171.726 144.502 172.18 145.432C172.952 147.015 173.322 147.97 173.616 149.706C173.866 151.18 173.867 152.042 173.752 153.533C173.619 155.258 173.392 156.229 172.84 157.87C172.777 158.057 172.718 158.236 172.661 158.409C172.185 159.849 171.854 160.853 170.799 162.11C170.336 162.661 169.482 163.401 169.482 163.401C169.482 163.401 170.036 161.64 170.207 160.452C170.362 159.369 170.382 158.678 170.322 157.585C170.258 156.425 170.082 155.75 169.568 154.708C169.159 153.88 168.882 153.4 168.196 152.782C168.078 152.676 167.919 152.553 167.783 152.453C165.519 154.607 162.176 155.484 158.995 154.45C154.375 152.949 151.846 147.986 153.347 143.366C154.849 138.746 159.811 136.217 164.432 137.718C166.41 138.361 168.006 139.639 169.065 141.253L169.066 141.247C169.465 141.853 169.933 142.401 170.399 142.947Z" fill="black"/>
<path fill-rule="evenodd" clip-rule="evenodd" d="M91.9101 154.092C91.0969 154.716 90.2881 155.336 89.3351 155.741C87.7144 156.429 86.7409 156.748 84.992 156.951C83.5068 157.123 82.6465 157.079 81.1638 156.886C79.4472 156.663 78.4894 156.385 76.8798 155.748C76.6968 155.676 76.521 155.608 76.3514 155.542C74.9378 154.991 73.9526 154.607 72.7529 153.488C72.2263 152.997 71.5326 152.106 71.5326 152.106C71.5326 152.106 73.2617 152.751 74.4392 152.984C75.5132 153.196 76.2021 153.252 77.2969 153.249C78.458 153.245 79.1419 153.105 80.2086 152.646C81.0569 152.281 81.5507 152.03 82.2038 151.377C82.3162 151.265 82.447 151.112 82.5542 150.982C80.5215 148.608 79.8211 145.224 81.0198 142.101C82.7608 137.566 87.8489 135.301 92.3844 137.042C96.9199 138.783 99.1853 143.871 97.4442 148.406C96.6986 150.349 95.3389 151.875 93.6716 152.848L93.6774 152.849C93.0519 153.217 92.4799 153.655 91.9101 154.092Z" fill="black"/>
<path fill-rule="evenodd" clip-rule="evenodd" d="M59.8121 86.1105C59.2027 85.2865 58.5968 84.4671 58.2089 83.5071C57.5494 81.8746 57.2474 80.8958 57.0749 79.1435C56.9283 77.6555 56.9874 76.7962 57.206 75.317C57.4591 73.6046 57.7537 72.6518 58.4184 71.0536C58.494 70.8718 58.5656 70.6973 58.6346 70.5288C59.2097 69.1251 59.6105 68.1468 60.7505 66.9667C61.2508 66.4488 62.154 65.7707 62.154 65.7707C62.154 65.7707 61.4786 67.4883 61.2256 68.6616C60.9948 69.7317 60.9265 70.4195 60.9106 71.5142C60.8937 72.6752 61.022 73.3614 61.4622 74.436C61.8122 75.2905 62.055 75.7886 62.6964 76.453C62.8068 76.5674 62.9567 76.7008 63.0849 76.8103C65.4938 74.8193 68.89 74.1781 71.9912 75.4311C76.4956 77.251 78.6718 82.3778 76.8519 86.8823C75.032 91.3867 69.9052 93.5629 65.4007 91.743C63.4715 90.9636 61.9693 89.5775 61.0253 87.8935L61.0241 87.8992C60.6677 87.2674 60.2391 86.6878 59.8121 86.1105Z" fill="black"/>
<path fill-rule="evenodd" clip-rule="evenodd" d="M180.851 73.1031C181.805 72.7278 182.753 72.3545 183.781 72.2284C185.528 72.0138 186.552 71.9755 188.289 72.2623C189.764 72.5059 190.579 72.7853 191.951 73.3793C193.54 74.067 194.384 74.5982 195.756 75.6539C195.912 75.774 196.062 75.8883 196.207 75.9985C197.414 76.9174 198.255 77.5578 199.1 78.9643C199.471 79.5816 199.892 80.6295 199.892 80.6295C199.892 80.6295 198.408 79.5326 197.34 78.9845C196.366 78.4846 195.719 78.2407 194.666 77.942C193.549 77.6252 192.853 77.5715 191.701 77.7185C190.785 77.8354 190.241 77.9411 189.433 78.3886C189.294 78.4657 189.126 78.576 188.987 78.6714C190.287 81.5136 190.027 84.96 188.015 87.6312C185.091 91.5111 179.575 92.2863 175.696 89.3626C171.816 86.4388 171.04 80.9234 173.964 77.0435C175.216 75.3817 176.944 74.2895 178.815 73.8135L178.81 73.8109C179.512 73.6301 180.183 73.3661 180.851 73.1031Z" fill="black"/>
<defs>
<filter id="filter0_i_13_1225" x="0" y="0" width="250" height="250" filterUnits="userSpaceOnUse" color-interpolation-filters="sRGB">
<feFlood flood-opacity="0" result="BackgroundImageFix"/>
<feBlend mode="normal" in="SourceGraphic" in2="BackgroundImageFix" result="shape"/>
<feColorMatrix in="SourceAlpha" type="matrix" values="0 0 0 0 0 0 0 0 0 0 0 0 0 0 0 0 0 0 127 0" result="hardAlpha"/>
<feMorphology radius="15" operator="erode" in="SourceAlpha" result="effect1_innerShadow_13_1225"/>
<feOffset/>
<feGaussianBlur stdDeviation="18.15"/>
<feComposite in2="hardAlpha" operator="arithmetic" k2="-1" k3="1"/>
<feColorMatrix type="matrix" values="0 0 0 0 0 0 0 0 0 0 0 0 0 0 0 0 0 0 1 0"/>
<feBlend mode="normal" in2="shape" result="effect1_innerShadow_13_1225"/>
</filter>
<radialGradient id="paint0_radial_13_1225" cx="0" cy="0" r="1" gradientUnits="userSpaceOnUse" gradientTransform="translate(125 125) rotate(90) scale(125)">
<stop stop-color="#B060FF"/>
<stop offset="0.41" stop-color="#AF61FB"/>
<stop offset="0.71" stop-color="#9452D5"/>
<stop offset="1" stop-color="#3F215E"/>
</radialGradient>
</defs>
</svg>
