<svg width="250" height="250" viewBox="0 0 250 250" fill="none" xmlns="http://www.w3.org/2000/svg">
<circle cx="125" cy="125" r="121" fill="url(#paint0_radial_13_1202)" stroke="black" stroke-width="8"/>
<path fill-rule="evenodd" clip-rule="evenodd" d="M125 250C194.036 250 250 194.036 250 125C250 55.9644 194.036 0 125 0C55.9644 0 0 55.9644 0 125C0 194.036 55.9644 250 125 250ZM145.5 40C140.365 25.8988 126 6 126 6C126 6 109.135 25.8988 104 40C98.8648 54.1012 93 67.5 93 67.5C93 67.5 72.583 63.0186 60.5 63C45.6956 62.9772 25 65.25 25 65.25C25 65.25 27.7372 79.4454 35 92.5C41.1086 103.48 60.5 125 60.5 125C60.5 125 52.1926 137.632 42.5 149C32.7053 160.487 23.5 183 23.5 183C23.5 183 38.6959 185.909 53.5 186C65.0028 186.071 91.5 181.5 91.5 181.5C91.5 181.5 99.3648 197.899 104.5 212C109.635 226.101 126 243 126 243C126 243 136.618 229.066 144 216C150.133 205.145 158.5 181.5 158.5 181.5C158.5 181.5 175.414 183.468 190 186C204.586 188.532 227 183.75 227 183.75C227 183.75 219.215 165.793 211.5 153C204.951 142.14 189.5 124.5 189.5 124.5C189.5 124.5 199.549 111.569 209 100C218.451 88.4307 227 65.25 227 65.25C227 65.25 205.657 63.8717 192 64.5C178.257 65.1322 157 68.5 157 68.5C157 68.5 150.635 54.1012 145.5 40Z" fill="black"/>
<path d="M145 89C125.982 77.7792 92.5 68 92.5 68C92.5 68 83.5305 102.157 83.5 124.5C83.4693 147.036 92.5 181.5 92.5 181.5C92.5 181.5 126.144 173.081 145 162C164.337 150.637 188.5 124.5 188.5 124.5C188.5 124.5 163.885 100.142 145 89Z" stroke="black" stroke-width="5"/>
<path d="M167.314 124.213C166.86 101.438 157.42 66.5342 157.42 66.5342C157.42 66.5342 123.027 76.3295 103.653 87.9339C84.111 99.6384 59.0823 125.621 59.0823 125.621C59.0823 125.621 84.3767 151.195 104.066 162.217C124.257 173.519 159.829 181.428 159.829 181.428C159.829 181.428 167.764 146.829 167.314 124.213Z" stroke="black" stroke-width="5"/>
<path d="M69.0717 84C60.5709 81.888 47 80 47 80C47 80 57.0322 91.9201 64.0554 99C69.7076 104.698 72.9708 107.82 79.1042 113C85.5015 118.403 89.6837 120.691 96.1596 126C100.558 129.606 107.195 135.5 107.195 135.5C107.195 135.5 107.889 144.365 108.7 150C109.721 157.089 110.81 160.977 112.212 168C113.929 176.601 114.341 181.559 116.726 190C119.331 199.217 125.254 213 125.254 213C125.254 213 130.271 199.111 132.778 190C135.117 181.503 136.246 176.674 137.795 168C139.042 161.013 139.36 157.034 140.303 150C141.114 143.95 142.309 134.5 142.309 134.5C142.309 134.5 148.276 130.435 151.84 127.5C156.433 123.717 159.492 121.018 163.879 117C171.859 109.692 176.221 106.577 183.945 99C191.064 92.0159 201 80 201 80C201 80 182.531 83.7793 170.902 87C163.797 88.9678 159.772 89.982 152.844 92.5C146.657 94.7486 143.407 96.5609 137.293 99C132.227 101.021 124.251 104 124.251 104C124.251 104 115.968 101.027 110.707 99C104.396 96.5682 100.985 94.8809 94.6547 92.5C84.8015 88.7943 79.2902 86.5388 69.0717 84Z" fill="black"/>
<circle cx="125" cy="125" r="17" fill="#C00101"/>
<defs>
<radialGradient id="paint0_radial_13_1202" cx="0" cy="0" r="1" gradientUnits="userSpaceOnUse" gradientTransform="translate(125 125) rotate(90) scale(125)">
<stop stop-color="#710000"/>
<stop offset="0.611" stop-color="#C00000"/>
<stop offset="0.996" stop-color="#A80000"/>
</radialGradient>
</defs>
</svg>
