<svg width="250" height="250" viewBox="0 0 250 250" fill="none" xmlns="http://www.w3.org/2000/svg">
<circle cx="125" cy="125" r="121" fill="url(#paint0_radial_13_1190)" stroke="black" stroke-width="8"/>
<path d="M109 32C109 32 107.853 36.4319 106.5 39C105.969 40.0073 105 41.5 105 41.5C105 41.5 102.248 42.069 100.5 42.5C97.7396 43.1807 96.1647 43.5089 93.5 44.5C89.8169 45.8698 87.9427 47.1054 84.5 49L84.1455 49.195C79.5215 51.7393 76.7928 53.2406 72.5 56.5C68.7547 59.3437 66.9668 61.3227 63.5 64.5C59.7324 67.9529 57.528 69.8026 54 73.5C50.3297 77.3466 48.436 79.7107 45.1565 83.8046L45 84C42.9978 86.4995 41.8131 87.8601 40 90.5C36.2414 95.9725 34.8764 99.5166 32 105.5C29.6893 110.307 28.3346 112.992 26.5 118C24.8851 122.408 23 129.5 23 129.5C23 129.5 21.8963 136.794 21.5 141.5C20.9919 147.535 21 157 21 157V170V179L26.5 187.5H33C36.1242 187.5 37.88 187.662 41 187.5C44.5316 187.317 46.5064 187.048 50 186.5C54.5404 185.788 61.5 184 61.5 184C61.5 184 64.87 188.26 67.5 190.5C71.7594 194.128 75.114 195.774 80 198.5C85.2669 201.438 87.9726 202.587 93.5 205C96.558 206.335 98.3645 206.859 101.5 208C106.549 209.837 109.311 211.109 114.5 212.5C121.197 214.295 125.099 214.825 132 215.5C138.416 216.128 142.059 216.261 148.5 216C154.188 215.769 157.366 215.319 163 214.5C168.306 213.729 171.323 213.396 176.5 212C181.091 210.762 183.604 209.811 188 208C192.199 206.27 194.853 205.352 199 203.5C202.675 201.858 204.484 200.961 208 199C212.025 196.755 213.673 195.068 217.5 192.5C219.614 191.081 223 188.5 223 188.5L228.5 178.5L226 173.5C226 173.5 223.51 170.149 221.5 167.5C220.06 165.601 218.417 163.916 217 162C215.676 160.21 214.838 158.779 213.5 157C211.481 154.315 208 150.5 208 150.5C208 150.5 209.516 143.839 210 139.5C210.39 136.002 210.411 134.019 210.5 130.5C210.574 127.572 210.568 125.928 210.5 123C210.414 119.286 210.391 116.429 210 113.5L209 106C208.609 103.071 208.542 101.708 208 99C207.284 95.4231 206.504 93.507 205.5 90C204.548 86.6735 204.249 84.7269 203 81.5C201.582 77.8352 200.257 76.0147 198.5 72.5C196.743 68.9853 195.865 66.9589 194 63.5C192.506 60.7286 191.608 59.2072 190 56.5C188.478 53.9372 188.929 53.5147 186 50L178.5 41C178.5 41 173.929 36.0384 171 33.5L163.5 27C163.5 27 159.613 23.8522 157 22C153.42 19.4621 151.305 18.1862 147.5 16C144.622 14.3462 142.979 13.4639 140 12C136.548 10.3038 131 8 131 8H119.5L118.5 10C118.5 10 116.322 14.2444 115 17C113.791 19.5206 113.066 20.9155 112 23.5C110.658 26.7542 109 32 109 32Z" fill="black" stroke="black"/>
<path d="M91.5 105L53.5 139C53.5 139 50.9862 131.033 50.5 125.5C50.0214 120.054 49.8665 115.931 50.5 110.5C51.1038 105.325 51.0825 102.014 52.5 97C53.844 92.2466 55.0595 90.0427 57 85.5C59.645 79.3083 61.569 75.5695 66 70.5C69.6528 66.321 72.0862 63.3652 76.5 60C80.5073 56.9447 82.943 55.4889 87 52.5C89.3581 50.7627 90.9755 50.4852 93.5 49C97.282 46.775 104 45.5 104 45.5L103.5 48C103.5 48 102.333 51.6021 101.5 54C100.117 57.9818 99.9196 60.3864 99 64.5C98.1729 68.2 97.7363 70.2809 97 74C96.3827 77.1181 96.0786 78.8745 95.5 82C94.7053 86.2933 94.2508 88.6988 93.5 93C92.6831 97.6802 91.5 105 91.5 105Z" fill="#BF0000"/>
<path d="M158.574 106.761L148.715 56.7333C148.715 56.7333 156.85 58.6355 161.857 61.0395C166.785 63.4061 170.411 65.3761 174.758 68.6912C178.901 71.8504 181.76 73.5212 185.349 77.2979C188.752 80.8787 190.028 83.0484 192.945 87.0347C196.921 92.4682 199.156 96.0302 201.256 102.427C202.987 107.701 204.288 111.302 204.931 116.815C205.514 121.82 205.524 124.658 206.025 129.672C206.317 132.586 206.01 134.071 206 137C205.985 141.388 203.374 147.864 203.374 147.864L201.479 146.159C201.479 146.159 198.976 143.318 197.338 141.378C194.619 138.157 192.652 136.761 189.583 133.872C186.822 131.273 185.255 129.836 182.432 127.305C180.065 125.184 178.709 124.026 176.316 121.934C173.029 119.061 171.192 117.443 167.875 114.603C164.266 111.513 158.574 106.761 158.574 106.761Z" fill="#BF0000"/>
<path d="M125.779 163.825L174.223 179.734C174.223 179.734 168.58 185.895 164.032 189.082C159.555 192.22 156.061 194.416 151.042 196.582C146.258 198.647 143.401 200.321 138.35 201.6C133.562 202.813 131.045 202.862 126.141 203.453C119.456 204.258 115.256 204.462 108.651 203.159C103.205 202.085 99.4287 201.456 94.3074 199.316C89.6579 197.373 87.1792 195.991 82.5622 193.972C79.8787 192.799 78.734 191.805 76.1856 190.361C72.3677 188.198 68.0001 182.75 68.0001 182.75L70.4151 181.933C70.4151 181.933 74.1182 181.143 76.6113 180.665C80.7511 179.872 82.9323 178.841 86.9545 177.58C90.5724 176.446 92.5928 175.784 96.1818 174.562C99.1908 173.538 100.864 172.923 103.86 171.861C107.975 170.403 110.286 169.594 114.386 168.093C118.848 166.461 125.779 163.825 125.779 163.825Z" fill="#BF0000"/>
<ellipse cx="125" cy="124.5" rx="24" ry="23.5" fill="#BF0000"/>
<defs>
<radialGradient id="paint0_radial_13_1190" cx="0" cy="0" r="1" gradientUnits="userSpaceOnUse" gradientTransform="translate(125 125) rotate(90) scale(125)">
<stop stop-color="#A30000"/>
<stop offset="0.611" stop-color="#C00000"/>
<stop offset="0.996" stop-color="#A80000"/>
</radialGradient>
</defs>
</svg>
